<?xml version="1.0" encoding="utf-8"?>
<!-- Generator: Adobe Illustrator 18.0.0, SVG Export Plug-In . SVG Version: 6.00 Build 0)  -->
<!DOCTYPE svg PUBLIC "-//W3C//DTD SVG 1.1//EN" "http://www.w3.org/Graphics/SVG/1.1/DTD/svg11.dtd">
<svg version="1.1" id="图层_1" xmlns="http://www.w3.org/2000/svg" xmlns:xlink="http://www.w3.org/1999/xlink" x="0px" y="0px"
	 viewBox="0 0 49 45" enable-background="new 0 0 49 45" xml:space="preserve">
<path fill-rule="evenodd" clip-rule="evenodd" fill="none" d="M20,5c0-1,0-2,0-3c1.2-0.9,1.1-0.8,2-2c1.8,0.6,1,0.2,2,1
	c5.8,1.5,5.6,4.6,9,8c9.3,9.3,14.4,10.2,10,28c-2.5,1.8-5,4.8-8,6c-9.2,3.7-23.5-0.5-26-7c-2-2.3-2.2-6.4-4-9c-1,0.8-0.3,0.4-2,1
	c0-0.7,0-1.3,0-2c1.8-0.6,1-0.2,2-1c-1.7-0.3-3.3-0.7-5-1c0.3-1,0.7-2,1-3c1.3,0.3,2.7,0.7,4,1c-0.3-2.5-0.7-0.5,0-3
	c1,0.7,2,1.3,3,2c1.2-4.8,4.3-8.6,8-11c-1.6-1.8-2-1.3-3-4C14.9,5.3,16.9,5,20,5z"/>
</svg>
